<svg xmlns="http://www.w3.org/2000/svg" width="17" height="17" viewBox="0 0 17 17">
  <defs>
    <style>
      .cls-1 {
        fill: #fff;
        fill-rule: evenodd;
      }
    </style>
  </defs>
  <path id="Icon" class="cls-1" d="M1402.37,1216.25v-5.71h5.88v4.74a0.965,0.965,0,0,1-.97.97h-4.91Zm-1.74-13.5v6.04h-5.88v-5.07a0.965,0.965,0,0,1,.97-0.97h4.91Zm-7.63.19v13.12a1.942,1.942,0,0,0,1.94,1.94h13.12a1.942,1.942,0,0,0,1.94-1.94v-13.12a1.942,1.942,0,0,0-1.94-1.94h-13.12a1.942,1.942,0,0,0-1.94,1.94h0Z" transform="translate(-1393 -1201)"/>
</svg>
