<svg xmlns="http://www.w3.org/2000/svg" width="14.812" height="7.906" viewBox="0 0 14.812 7.906">
  <defs>
    <style>
      .cls-1 {
        fill: #ff2366;
        fill-rule: evenodd;
      }
    </style>
  </defs>
  <path id="Icon" class="cls-1" d="M936.339,935.264a1.09,1.09,0,0,0,0,1.475l3.994,4.243a0.94,0.94,0,0,0,1.388,0l3.039-3.227,2.307,2.451-0.717.76a0.515,0.515,0,0,0,.214.843l3.736,1.065a0.489,0.489,0,0,0,.581-0.618l-1-3.971a0.466,0.466,0,0,0-.795-0.225l-0.628.669-3-3.188a0.941,0.941,0,0,0-1.389,0l-3.039,3.228-3.3-3.5a0.942,0.942,0,0,0-1.388,0h0Z" transform="translate(-936.063 -934.969)"/>
</svg>
