<svg xmlns="http://www.w3.org/2000/svg" width="14.812" height="7.843" viewBox="0 0 14.812 7.843">
  <defs>
    <style>
      .cls-1 {
        fill: #0b78e3;
        fill-rule: evenodd;
      }
    </style>
  </defs>
  <path id="Icon" class="cls-1" d="M781.085,939.716l-0.629-.663-3,3.157a0.949,0.949,0,0,1-1.389,0l-3.038-3.2-3.3,3.47a0.949,0.949,0,0,1-1.389,0,1.07,1.07,0,0,1,0-1.461l3.994-4.2a0.948,0.948,0,0,1,1.388,0l3.038,3.2,2.307-2.426-0.716-.753a0.51,0.51,0,0,1,.213-0.836l3.736-1.053a0.487,0.487,0,0,1,.582.612l-1,3.931a0.467,0.467,0,0,1-.795.223" transform="translate(-768.063 -934.938)"/>
</svg>
